<svg xmlns="http://www.w3.org/2000/svg" version="1.1" xmlns:xlink="http://www.w3.org/1999/xlink" xmlns:svgjs="http://svgjs.dev/svgjs" width="1500" height="935" viewBox="0 0 1500 935"><g transform="matrix(1,0,0,1,-0.9090909090909918,0.3785425101214628)"><svg viewBox="0 0 396 247" data-background-color="#ffffff" preserveAspectRatio="xMidYMid meet" height="935" width="1500" xmlns="http://www.w3.org/2000/svg" xmlns:xlink="http://www.w3.org/1999/xlink"><g id="tight-bounds" transform="matrix(1,0,0,1,0.2400000000000091,-0.09999999999999432)"><svg viewBox="0 0 395.52 247.2" height="247.2" width="395.52"><g><svg></svg></g><g><svg viewBox="0 0 395.52 247.2" height="247.2" width="395.52"><g><path d="M55.039 247.2l26.403-45.732 3.434 0-24.592 42.595h274.952l-24.592-42.595 3.434 0 26.403 45.732zM197.76 0l26.403 45.732-3.433 0-22.97-39.785-22.97 39.785-3.433 0z" fill="#313efc" fill-rule="nonzero" stroke="none" stroke-width="1" stroke-linecap="butt" stroke-linejoin="miter" stroke-miterlimit="10" stroke-dasharray="" stroke-dashoffset="0" font-family="none" font-weight="none" font-size="none" text-anchor="none" style="mix-blend-mode: normal" data-fill-palette-color="tertiary"></path></g><g transform="matrix(1,0,0,1,55.797565818384356,67.97999999999999)"><svg viewBox="0 0 283.92486836323127 111.24" height="111.24" width="283.92486836323127"><g><svg viewBox="0 0 283.92486836323127 111.24" height="111.24" width="283.92486836323127"><g><svg viewBox="0 0 599.5796882290907 234.91159792764898" height="111.24" width="283.92486836323127"><g transform="matrix(1,0,0,1,204.05968822909074,32.46607467741025)"><svg viewBox="0 0 395.52 169.9794485728285" height="169.9794485728285" width="395.52"><g id="textblocktransform"><svg viewBox="0 0 395.52 169.9794485728285" height="169.9794485728285" width="395.52" id="textblock"><g><svg viewBox="0 0 395.52 106.36218859138532" height="106.36218859138532" width="395.52"><g transform="matrix(1,0,0,1,0,0)"><svg width="395.52" viewBox="1.65 -34.3 171.79 46.199999999999996" height="106.36218859138532" data-palette-color="#3662d0"><path d="M29.4-18Q36.2-16 36.2-9.7L36.2-9.7Q36.2-5.1 32.7-2.55 29.2 0 22.55 0L22.55 0 1.65 0 1.65-6.35 7.25-6.35 7.25-27.95 1.65-27.95 1.65-34.3 21.45-34.3Q27.3-34.3 30.38-31.75 33.45-29.2 33.45-25.05L33.45-25.05Q33.45-20.55 29.4-18L29.4-18ZM21-27.95L15.2-27.95 15.2-19.9 19.5-19.9Q22.35-19.9 23.85-20.85 25.35-21.8 25.35-24L25.35-24Q25.35-26.1 24.05-27.03 22.75-27.95 21-27.95L21-27.95ZM22-6.35Q28.1-6.35 28.1-10.35L28.1-10.35Q28.1-12.35 26.75-13.28 25.4-14.2 22.55-14.2L22.55-14.2 15.2-14.2 15.2-6.35 22-6.35ZM51.1-5.95L55.9-5.95 55.9 0 38.85 0 38.85-5.95 43.5-5.95 43.5-28.35 38.85-28.35 38.85-34.3 51.1-34.3 51.1-5.95ZM70.95 0.7Q67.4 0.7 64.27-0.85 61.15-2.4 59.25-5.25 57.34-8.1 57.34-11.75L57.34-11.75Q57.34-15.4 59.25-18.25 61.15-21.1 64.27-22.65 67.4-24.2 70.95-24.2L70.95-24.2Q74.4-24.2 77.52-22.65 80.65-21.1 82.59-18.25 84.55-15.4 84.55-11.75L84.55-11.75Q84.55-8.1 82.7-5.25 80.84-2.4 77.72-0.85 74.59 0.7 70.95 0.7L70.95 0.7ZM70.95-5.25Q73.34-5.25 74.97-7.03 76.59-8.8 76.59-11.75L76.59-11.75Q76.59-14.7 74.97-16.48 73.34-18.25 70.95-18.25L70.95-18.25Q68.55-18.25 66.92-16.48 65.3-14.7 65.3-11.75L65.3-11.75Q65.3-8.8 66.92-7.03 68.55-5.25 70.95-5.25L70.95-5.25ZM105.74-5.15Q109.44-5.15 111.64-3.38 113.84-1.6 113.84 1.7L113.84 1.7Q113.84 4.4 111.69 6.43 109.54 8.45 105.87 9.55 102.19 10.65 97.69 10.65L97.69 10.65Q92.59 10.65 89.39 8.93 86.19 7.2 86.19 3.9L86.19 3.9Q86.19 1.4 88.94-1L88.94-1Q87.04-2.55 87.04-5L87.04-5Q87.04-6.75 88.02-8.2 88.99-9.65 90.59-10.7L90.59-10.7Q88.69-12.75 88.69-15.6L88.69-15.6Q88.69-18.3 90.42-20.25 92.14-22.2 94.77-23.2 97.39-24.2 100.04-24.2L100.04-24.2Q102.74-24.2 105.19-23.35L105.19-23.35Q106.04-26 108.22-27.25 110.39-28.5 113.34-28.5L113.34-28.5 113.34-22.4Q110.29-22.4 108.69-21.5L108.69-21.5Q111.49-19.2 111.49-15.75L111.49-15.75Q111.49-13 109.74-11.05 107.99-9.1 105.34-8.13 102.69-7.15 100.04-7.15L100.04-7.15Q96.94-7.15 94.09-8.3L94.09-8.3Q93.54-7.5 93.54-6.8L93.54-6.8Q93.54-5 96.19-5L96.19-5 100.39-5.05Q103.49-5.15 105.74-5.15L105.74-5.15ZM100.09-19.05Q98.19-19.05 97.14-18.05 96.09-17.05 96.09-15.6L96.09-15.6Q96.09-14.2 97.14-13.25 98.19-12.3 100.09-12.3L100.09-12.3Q101.89-12.3 102.97-13.3 104.04-14.3 104.04-15.75L104.04-15.75Q104.04-17.15 102.99-18.1 101.94-19.05 100.09-19.05L100.09-19.05ZM98.69 4.6Q101.99 4.6 104.47 3.93 106.94 3.25 106.94 2.2L106.94 2.2Q106.94 1.35 106.27 1 105.59 0.65 104.09 0.65L104.09 0.65Q103.29 0.65 100.79 0.75L100.79 0.75Q97.49 0.95 94.64 0.95L94.64 0.95Q93.79 0.95 92.94 0.8L92.94 0.8Q92.64 1.5 92.64 2.25L92.64 2.25Q92.64 3.45 94.09 4.03 95.54 4.6 98.69 4.6L98.69 4.6ZM133.54-5.15Q137.24-5.15 139.44-3.38 141.64-1.6 141.64 1.7L141.64 1.7Q141.64 4.4 139.49 6.43 137.34 8.45 133.66 9.55 129.99 10.65 125.49 10.65L125.49 10.65Q120.39 10.65 117.19 8.93 113.99 7.2 113.99 3.9L113.99 3.9Q113.99 1.4 116.74-1L116.74-1Q114.84-2.55 114.84-5L114.84-5Q114.84-6.75 115.81-8.2 116.79-9.65 118.39-10.7L118.39-10.7Q116.49-12.75 116.49-15.6L116.49-15.6Q116.49-18.3 118.22-20.25 119.94-22.2 122.56-23.2 125.19-24.2 127.84-24.2L127.84-24.2Q130.54-24.2 132.99-23.35L132.99-23.35Q133.84-26 136.01-27.25 138.19-28.5 141.14-28.5L141.14-28.5 141.14-22.4Q138.09-22.4 136.49-21.5L136.49-21.5Q139.29-19.2 139.29-15.75L139.29-15.75Q139.29-13 137.54-11.05 135.79-9.1 133.14-8.13 130.49-7.15 127.84-7.15L127.84-7.15Q124.74-7.15 121.89-8.3L121.89-8.3Q121.34-7.5 121.34-6.8L121.34-6.8Q121.34-5 123.99-5L123.99-5 128.19-5.05Q131.29-5.15 133.54-5.15L133.54-5.15ZM127.89-19.05Q125.99-19.05 124.94-18.05 123.89-17.05 123.89-15.6L123.89-15.6Q123.89-14.2 124.94-13.25 125.99-12.3 127.89-12.3L127.89-12.3Q129.69-12.3 130.76-13.3 131.84-14.3 131.84-15.75L131.84-15.75Q131.84-17.15 130.79-18.1 129.74-19.05 127.89-19.05L127.89-19.05ZM126.49 4.6Q129.79 4.6 132.26 3.93 134.74 3.25 134.74 2.2L134.74 2.2Q134.74 1.35 134.06 1 133.39 0.65 131.89 0.65L131.89 0.65Q131.09 0.65 128.59 0.75L128.59 0.75Q125.29 0.95 122.44 0.95L122.44 0.95Q121.59 0.95 120.74 0.8L120.74 0.8Q120.44 1.5 120.44 2.25L120.44 2.25Q120.44 3.45 121.89 4.03 123.34 4.6 126.49 4.6L126.49 4.6ZM173.44-23.55L173.44-17.6 170.79-17.6 161.99 1.3Q159.44 6.85 156.46 9.38 153.49 11.9 149.54 11.9L149.54 11.9Q147.44 11.9 145.76 11.3 144.09 10.7 142.09 9.45L142.09 9.45 144.99 3.7Q147.54 5.25 149.54 5.25L149.54 5.25Q151.64 5.25 153.11 4.13 154.59 3 155.89 0.3L155.89 0.3 146.29-17.6 143.44-17.6 143.44-23.55 157.54-23.55 157.54-18.25 154.29-18.25 159.34-7.4 164.19-18.25 161.09-18.25 161.09-23.55 173.44-23.55Z" opacity="1" transform="matrix(1,0,0,1,0,0)" fill="#3662d0" class="wordmark-text-0" data-fill-palette-color="primary" id="text-0"></path></svg></g></svg></g><g transform="matrix(1,0,0,1,39.55199999999999,131.47174862528522)"><svg viewBox="0 0 316.416 38.50769994754329" height="38.50769994754329" width="316.416"><g transform="matrix(1,0,0,1,0,0)"><svg width="316.416" viewBox="0.2 -33.95 285.93 34.800000000000004" height="38.50769994754329" data-palette-color="#0074d9"><path d="M23.95 0L0.2 0 0.35-1.05 1.2-1.3Q3-1.85 3.35-3.65L3.35-3.65 6-17.55Q6.5-20.2 7.05-23.28 7.6-26.35 8.05-29.2L8.05-29.2Q8.4-31.1 6.5-31.8L6.5-31.8 5.95-32 6.15-33.05 18.2-33.05 18.05-32 16.9-31.7Q15-31.15 14.65-29.25L14.65-29.25 12.05-15.5Q11.45-12.3 10.8-8.5 10.15-4.7 9.6-1.5L9.6-1.5 15.15-1.5Q17.2-1.5 18.65-2.23 20.1-2.95 21.2-4.65L21.2-4.65 24.7-9.65 26-9.65 23.95 0ZM50.65 0L26.5 0 26.7-1.05 27.55-1.3Q29.3-1.8 29.7-3.7L29.7-3.7 32.3-17.55Q32.8-20.2 33.32-23.25 33.85-26.3 34.35-29.1L34.35-29.1Q34.7-31.15 32.7-31.85L32.7-31.85 32.2-32 32.45-33.05 54.85-33.05 53.6-24.35 52.3-24.35 51.4-28.45Q51.05-30.05 50.17-30.8 49.3-31.55 47.55-31.55L47.55-31.55 41.4-31.55 38.8-17.7 43.05-17.7Q45.2-17.7 46.45-19.55L46.45-19.55 48-21.85 49.05-21.85 47.25-12.2 46.2-12.2 45.65-14.05Q45-16.25 42.75-16.25L42.75-16.25 38.5-16.25Q37.85-12.75 37.15-8.95 36.45-5.15 35.9-1.5L35.9-1.5 43.65-1.5Q45.2-1.5 46.3-2.1 47.4-2.7 48.35-4.15L48.35-4.15 51.35-8.7 52.65-8.7 50.65 0ZM73.45 0L60.35 0 60.55-1.05 61.75-1.4Q64-2.15 64.45-4.5L64.45-4.5 66.9-17.55Q67.5-20.75 68.17-24.55 68.84-28.35 69.34-31.55L69.34-31.55 67.15-31.55Q63.9-31.55 62.1-28.9L62.1-28.9 58.6-23.9 57.3-23.9 59.2-33.05 86.65-33.05 85.05-23.9 83.8-23.9 82.3-28.45Q81.34-31.55 78.05-31.55L78.05-31.55 76-31.55 72.95-15.5Q72.45-12.95 71.95-10.1 71.45-7.25 70.95-4.55L70.95-4.55Q70.59-2.1 72.9-1.25L72.9-1.25 73.65-1.05 73.45 0ZM109.69 0.85L109.69 0.85Q104.69 0.85 101.62-1.63 98.54-4.1 98.54-9.05L98.54-9.05Q98.54-10.15 98.69-11.35 98.84-12.55 99.04-13.8L99.04-13.8 99.79-17.9Q100.24-20.4 100.77-23.28 101.29-26.15 101.79-28.85L101.79-28.85Q102.14-31.2 99.89-31.9L99.89-31.9 99.49-32 99.69-33.05 112.04-33.05 111.84-32 111.29-31.85Q109.09-31.2 108.64-28.95L108.64-28.95 105.84-14.1Q105.64-12.95 105.49-11.78 105.34-10.6 105.34-9.35L105.34-9.35Q105.34-6.1 107.07-4.28 108.79-2.45 111.84-2.45L111.84-2.45Q115.79-2.45 118.07-5 120.34-7.55 121.24-12.3L121.24-12.3 124.39-28.9Q124.84-31.2 122.59-31.9L122.59-31.9 122.24-32 122.44-33.05 129.49-33.05 129.29-32 128.84-31.85Q126.64-31.25 126.19-28.95L126.19-28.95 123.04-11.8Q121.94-5.75 118.57-2.45 115.19 0.85 109.69 0.85ZM136.49 0.85L136.49 0.85Q133.99 0.85 131.46 0.2 128.94-0.45 127.19-1.55L127.19-1.55 128.29-8.9 129.64-8.9 130.89-5.05Q131.59-2.7 132.89-1.68 134.19-0.65 136.64-0.65L136.64-0.65Q139.54-0.65 141.24-2.3 142.94-3.95 142.94-6.4L142.94-6.4Q142.94-7.65 142.54-8.78 142.14-9.9 141.04-11.13 139.94-12.35 137.79-13.9L137.79-13.9Q135.14-15.8 133.66-17.53 132.19-19.25 131.64-20.9 131.09-22.55 131.09-24.2L131.09-24.2Q131.09-27.1 132.59-29.3 134.09-31.5 136.74-32.73 139.39-33.95 142.79-33.95L142.79-33.95Q145.14-33.95 147.59-33.3 150.04-32.65 151.74-31.5L151.74-31.5 150.44-24.45 149.04-24.45 148.24-27.7Q147.59-30.2 146.34-31.3 145.09-32.4 142.64-32.4L142.64-32.4Q140.24-32.4 138.46-31 136.69-29.6 136.69-27.1L136.69-27.1Q136.69-25.05 137.81-23.35 138.94-21.65 141.84-19.5L141.84-19.5Q145.84-16.6 147.34-14.25 148.84-11.9 148.84-9.25L148.84-9.25Q148.84-6.15 147.26-3.88 145.69-1.6 142.91-0.38 140.14 0.85 136.49 0.85ZM173.83 0L162.03 0 162.23-1.05 162.93-1.3Q164.93-1.9 165.28-3.95L165.28-3.95 167.83-17.55Q168.33-20.35 168.86-23.3 169.38-26.25 169.88-29.1L169.88-29.1Q170.23-31.15 168.28-31.85L168.28-31.85 167.73-32 167.98-33.05 180.43-33.05Q185.98-33.05 188.68-30.98 191.38-28.9 191.38-25.35L191.38-25.35Q191.38-22.25 189.23-19.83 187.08-17.4 183.08-16.35L183.08-16.35 188.18-3.8Q188.88-1.95 190.73-1.2L190.73-1.2 191.23-1.05 190.98 0 182.38 0 177.13-15.25 173.83-15.25Q173.33-12.65 172.86-9.8 172.38-6.95 171.83-3.9L171.83-3.9Q171.48-1.95 173.43-1.25L173.43-1.25 174.03-1.05 173.83 0ZM176.93-31.6L174.13-16.7 176.78-16.7Q180.88-16.75 182.91-19.05 184.93-21.35 184.93-25.25L184.93-25.25Q184.93-31.6 179.23-31.6L179.23-31.6 176.93-31.6ZM217.23 0L193.08 0 193.28-1.05 194.13-1.3Q195.88-1.8 196.28-3.7L196.28-3.7 198.88-17.55Q199.38-20.2 199.91-23.25 200.43-26.3 200.93-29.1L200.93-29.1Q201.28-31.15 199.28-31.85L199.28-31.85 198.78-32 199.03-33.05 221.43-33.05 220.18-24.35 218.88-24.35 217.98-28.45Q217.63-30.05 216.76-30.8 215.88-31.55 214.13-31.55L214.13-31.55 207.98-31.55 205.38-17.7 209.63-17.7Q211.78-17.7 213.03-19.55L213.03-19.55 214.58-21.85 215.63-21.85 213.83-12.2 212.78-12.2 212.23-14.05Q211.58-16.25 209.33-16.25L209.33-16.25 205.08-16.25Q204.43-12.75 203.73-8.95 203.03-5.15 202.48-1.5L202.48-1.5 210.23-1.5Q211.78-1.5 212.88-2.1 213.98-2.7 214.93-4.15L214.93-4.15 217.93-8.7 219.23-8.7 217.23 0ZM227.98 0L219.63 0 219.88-1.05 221.38-1.45Q223.33-1.95 224.33-3.8L224.33-3.8 239.58-33.05 243.58-33.05 248.13-3.9Q248.43-2.05 250.23-1.45L250.23-1.45 251.43-1.05 251.18 0 238.98 0 239.18-1.05 240.13-1.35Q241.88-1.9 241.68-3.75L241.68-3.75 240.58-11.3 229.88-11.3 225.93-3.7Q225.13-1.95 226.88-1.45L226.88-1.45 228.18-1.05 227.98 0ZM240.38-12.75L238.28-27.55 230.63-12.75 240.38-12.75ZM266.07 0L253.38 0 253.58-1.05 254.28-1.3Q256.28-2.05 256.63-4L256.63-4 259.18-17.55Q259.68-20.2 260.2-23.23 260.73-26.25 261.23-29.05L261.23-29.05Q261.53-31.05 259.68-31.75L259.68-31.75 259.07-32 259.32-33.05 270.78-33.05Q275.78-33.05 279.2-31.28 282.63-29.5 284.38-26.35 286.13-23.2 286.13-19.15L286.13-19.15Q286.13-14.6 284.53-11.05 282.93-7.5 280.15-5.03 277.38-2.55 273.75-1.28 270.13 0 266.07 0L266.07 0ZM262.73-1.45L262.73-1.45 265.68-1.45Q269.98-1.45 273-3.88 276.03-6.3 277.63-10.4 279.23-14.5 279.23-19.55L279.23-19.55Q279.23-25.5 276.82-28.45 274.43-31.4 269.88-31.6L269.88-31.6 268.28-31.6 265.23-15.5Q264.57-12 263.93-8.5 263.28-5 262.73-1.45Z" opacity="1" transform="matrix(1,0,0,1,0,0)" fill="#0074d9" class="slogan-text-1" data-fill-palette-color="secondary" id="text-1"></path></svg></g></svg></g></svg></g></svg></g><g><svg viewBox="0 0 178.95012819519084 234.91159792764898" height="234.91159792764898" width="178.95012819519084"><g><svg xmlns="http://www.w3.org/2000/svg" xmlns:xlink="http://www.w3.org/1999/xlink" version="1.1" x="0" y="0" viewBox="26.673000000000002 19.378 46.655 61.245000000000005" style="enable-background:new 0 0 100 100;" xml:space="preserve" height="234.91159792764898" width="178.95012819519084" class="icon-icon-0" data-fill-palette-color="accent" id="icon-0"><path d="M72.328 19.378H34.953c-4.565 0-8.28 4.096-8.28 9.131v40.854c0 0.026 0 0.052 0 0.078 0 0.011 0 0.021 0 0.031v2.02c0 5.035 3.714 9.131 8.28 9.131h37.375c0.552 0 1-0.447 1-1s-0.448-1-1-1H34.953c-3.463 0-6.28-3.199-6.28-7.131v-2.114c0.04-2.606 2.516-4.717 5.554-4.717h38.101c0.552 0 1-0.447 1-1V20.378C73.328 19.825 72.88 19.378 72.328 19.378zM71.328 62.66H34.227c-2.194 0-4.172 0.844-5.554 2.188v-36.34c0-3.932 2.817-7.131 6.28-7.131h36.375V62.66z" fill="#3662d0" data-fill-palette-color="accent"></path><path d="M72.328 70.321H35.66c-0.552 0-1 0.447-1 1s0.448 1 1 1h36.667c0.552 0 1-0.447 1-1S72.88 70.321 72.328 70.321z" fill="#3662d0" data-fill-palette-color="accent"></path><path d="M44.953 45.079c0.301 0.219 0.427 0.606 0.312 0.96l-2.119 6.522c-0.257 0.791 0.649 1.449 1.322 0.96l5.548-4.031c0.301-0.219 0.709-0.219 1.01 0l5.548 4.031c0.673 0.489 1.579-0.169 1.322-0.96l-2.119-6.522c-0.115-0.354 0.011-0.742 0.312-0.96l5.548-4.031c0.673-0.489 0.327-1.554-0.505-1.554h-6.858c-0.372 0-0.702-0.24-0.817-0.594l-2.119-6.522c-0.257-0.791-1.377-0.791-1.634 0l-2.119 6.522c-0.115 0.354-0.445 0.594-0.817 0.594H39.91c-0.832 0-1.178 1.065-0.505 1.554L44.953 45.079z" fill="#3662d0" data-fill-palette-color="accent"></path></svg></g></svg></g></svg></g></svg></g></svg></g></svg></g><defs></defs></svg><rect width="395.52" height="247.2" fill="none" stroke="none" visibility="hidden"></rect></g></svg></g></svg>